
<svg width="800" height="600" viewBox="0 0 800 600" fill="none" xmlns="http://www.w3.org/2000/svg">
<defs>
  <linearGradient id="g1" x1="0" y1="0" x2="1" y2="1">
    <stop offset="0" stop-color="#60a5fa" stop-opacity=".35"/>
    <stop offset="1" stop-color="#34d399" stop-opacity=".25"/>
  </linearGradient>
</defs>
<rect width="800" height="600" fill="url(#g1)"/>
<g opacity=".35" stroke="#fff" stroke-opacity=".2">
  <path d="M0 520 C 150 480, 250 560, 400 520 S 650 480, 800 520" />
  <path d="M0 420 C 150 380, 250 460, 400 420 S 650 380, 800 420" />
  <path d="M0 320 C 150 280, 250 360, 400 320 S 650 280, 800 320" />
  <path d="M0 220 C 150 180, 250 260, 400 220 S 650 180, 800 220" />
  <path d="M0 120 C 150 80, 250 160, 400 120 S 650 80, 800 120" />
</g>
<g fill="#ffffff" opacity=".08">
  <circle cx="120" cy="80" r="4"/><circle cx="340" cy="160" r="3"/>
  <circle cx="600" cy="70" r="4"/><circle cx="700" cy="240" r="3"/>
  <circle cx="200" cy="380" r="3"/><circle cx="540" cy="460" r="4"/>
</g>
</svg>
